<?xml version="1.0" encoding="UTF-8"?><svg id="Layer_2" xmlns="http://www.w3.org/2000/svg" viewBox="0 0 204 184"><defs><style>.cls-1{fill:#f2f2f2;}</style></defs><g id="Layer_1-2"><path class="cls-1" d="m126.32,166.26c-1.12,1.16-2.52,1.74-4.2,1.74H21.72c-1.57,0-2.91-.58-4.04-1.74-1.12-1.16-1.68-2.52-1.68-4.06v-3.81c0-1.66.56-3.03,1.68-4.14,1.12-1.1,2.46-1.66,4.04-1.66h36.66c1.68,0,3.11-.55,4.29-1.66s1.77-2.48,1.77-4.14v-41.4c0-1.55-.62-2.9-1.85-4.06-1.24-1.16-2.63-1.74-4.21-1.74H21.72c-1.57,0-2.91-.55-4.04-1.66-1.12-1.1-1.68-2.43-1.68-3.98v-3.8c0-1.66.56-3.05,1.68-4.15,1.12-1.09,2.46-1.64,4.04-1.64h36.66c1.57,0,2.97-.58,4.21-1.75,1.23-1.16,1.85-2.51,1.85-4.06v-41.56c0-1.54-.62-2.9-1.85-4.06-1.24-1.16-2.63-1.74-4.21-1.74H21.72c-1.57,0-2.91-.55-4.04-1.66s-1.68-2.48-1.68-4.14v-3.81c0-1.54.56-2.87,1.68-3.98,1.12-1.09,2.46-1.64,4.04-1.64h100.39c1.68,0,3.08.55,4.2,1.64,1.12,1.1,1.68,2.44,1.68,3.98v3.81c0,1.66-.56,3.03-1.68,4.14s-2.52,1.66-4.2,1.66h-36.33c-1.57,0-2.94.58-4.12,1.74-1.18,1.16-1.77,2.52-1.77,4.06v41.56c0,1.55.59,2.9,1.77,4.06,1.18,1.17,2.55,1.75,4.12,1.75h36.33c1.68,0,3.08.55,4.2,1.64,1.12,1.1,1.68,2.49,1.68,4.15v3.8c0,1.55-.56,2.87-1.68,3.98-1.12,1.1-2.52,1.66-4.2,1.66h-36.33c-1.57,0-2.94.58-4.12,1.74-1.18,1.16-1.77,2.51-1.77,4.06v41.4c0,1.66.59,3.03,1.77,4.14s2.55,1.66,4.12,1.66h36.33c1.68,0,3.08.55,4.2,1.66,1.12,1.1,1.68,2.48,1.68,4.14v3.81c0,1.54-.56,2.9-1.68,4.06Z"/><path class="cls-1" d="m156.87,77.61c-.55.44-.82.98-.82,1.61s.27,1.16.82,1.61c.55.44,1.17.66,1.86.66h4.42c.74,0,1.38.26,1.93.79s.83,1.17.83,1.96v1.02c0,.73-.28,1.37-.83,1.92s-1.19.82-1.93.82h-11.6c-.74,0-1.38-.27-1.93-.82s-.83-1.19-.83-1.92v-14.12c0-.73-.15-1.37-.44-1.92s-.64-.82-1.06-.82-.78.27-1.07.82c-.3.55-.44,1.19-.44,1.92v14.12c0,.73-.3,1.37-.87,1.92s-1.23.82-1.96.82h-5.05c-.53,0-.97-.29-1.34-.86s-.55-1.23-.55-1.96v-1.1c0-.73.12-1.35.36-1.84s.54-.75.91-.75c.32,0,.61-.27.87-.82s.39-1.21.39-2v-32.32c0-.73.27-1.37.83-1.92s1.19-.82,1.94-.82h43.95c.78,0,1.44.27,1.97.82s.79,1.19.79,1.92v1.1c0,.73-.26,1.36-.79,1.88s-1.19.79-1.97.79h-36.77c-.74,0-1.37.15-1.9.47-.53.31-.78.68-.78,1.1,0,.47.26.86.78,1.17s1.16.47,1.9.47h36.77c.78,0,1.44.26,1.97.79s.79,1.15.79,1.88v.4c0,.73-.26,1.37-.79,1.92s-1.19.82-1.97.82h-36.77c-.74,0-1.37.17-1.9.51s-.78.77-.78,1.3c0,.41.26.81.78,1.17s1.16.55,1.9.55h36.77c.78,0,1.44.26,1.97.79s.79,1.15.79,1.88v.31c0,.73-.26,1.37-.79,1.92s-1.19.82-1.97.82h-26.51c-.69,0-1.3.15-1.86.43s-.82.64-.82,1.05.27.79.82,1.1c.55.32,1.17.47,1.86.47h4.5c.78,0,1.52.05,2.21.16.68.1,1.13.24,1.34.39.53.52,1.71.79,3.56.79h8.51c.74,0,1.37-.11,1.9-.35.52-.24.78-.54.78-.91,0-.41.25-.73.75-.94s1.14-.31,1.93-.31h1.03c1.79,0,2.68.6,2.68,1.8,0,1-.63,2.12-1.9,3.38l-1.18,1.17c-.63.52-1.37.97-2.25,1.33-.87.36-1.67.55-2.4.55h-3.08c-.95,0-1.42.21-1.42.63,0,.26.16.55.47.87.42.41,1.07.77,1.94,1.05.87.29,1.7.43,2.49.43h4.66c.78,0,1.44.26,1.97.79s.79,1.17.79,1.96v1.02c0,.73-.26,1.37-.79,1.92s-1.19.82-1.97.82h-6.4c-.73,0-1.57-.17-2.48-.51-.92-.34-1.7-.75-2.33-1.21l-8.76-7.53c-.58-.52-1.34-.95-2.29-1.3-.94-.34-1.79-.51-2.52-.51h-1.74c-.69,0-1.3.22-1.86.67Zm-17.52-60.83c.55-.52,1.19-.78,1.94-.78h43.95c.78,0,1.44.26,1.97.78.53.52.79,1.16.79,1.88v20.48c0,.68-.26,1.26-.79,1.76s-1.19.75-1.97.75h-43.95c-.74,0-1.39-.26-1.94-.79s-.83-1.17-.83-1.96v-20.24c0-.73.27-1.36.83-1.88Zm7.22,6.32c-.53.44-.78.95-.78,1.53s.26,1.06.78,1.46c.53.39,1.16.59,1.9.59h29.59c.73,0,1.37-.2,1.93-.59.55-.4.83-.88.83-1.46s-.28-1.09-.83-1.53c-.55-.45-1.19-.67-1.93-.67h-29.59c-.74,0-1.37.22-1.9.67Zm33.42,11.64c.55-.26.83-.57.83-.94s-.28-.68-.83-.94c-.55-.26-1.19-.39-1.93-.39h-29.59c-.85,0-1.49.13-1.94.39-.44.27-.67.58-.67.94s.24.68.71.94c.48.26,1.1.4,1.9.4h29.59c.73,0,1.37-.13,1.93-.4Z"/><path class="cls-1" d="m137.6,141.02c-.18-.52-.41-.79-.66-.79-.27,0-.48-.27-.67-.82s-.27-1.21-.27-2v-1.81c0-.73.09-1.36.27-1.88s.4-.79.67-.79.48-.27.66-.82c.18-.55.27-1.16.27-1.84v-29.96c0-.41.27-.79.82-1.14.55-.34,1.18-.51,1.91-.51h10.21c.78,0,1.43-.11,1.95-.35s.78-.56.78-.98c0-.36.27-.68.82-.94s1.18-.39,1.91-.39h1.72c.88,0,1.55.22,2.02.66.46.45.7,1.01.7,1.69,0,1.26-.63,2.51-1.88,3.77l-1.94,1.88c-.58.57-1.31,1.05-2.19,1.41-.88.37-1.71.55-2.49.55h-4.37c-.73,0-1.35.15-1.87.43s-.78.64-.78,1.06c0,.31.26.61.78.9s1.14.43,1.87.43h10.14c.77,0,1.42.18,1.94.55.52.36.79.81.79,1.33v48.79c0,.78-.18,1.61-.51,2.51-.34.89-.8,1.57-1.37,2.04l-1.94,2.04c-.58.57-1.31,1.05-2.19,1.41s-1.71.55-2.49.55h-.86c-.73,0-1.35-.27-1.87-.82s-.78-1.19-.78-1.92v-1.81c0-.79.23-1.44.7-1.96s1.04-.79,1.71-.79,1.24-.26,1.71-.79.7-1.17.7-1.96v-6.9c0-1-.26-1.49-.78-1.49-.31,0-.7.24-1.17.71l-.23.15c-.58.58-1.22.87-1.95.87-.68,0-1.36-.29-2.03-.87l-.39-.31c-.36-.36-.7-.55-1.01-.55-.52,0-.78.45-.78,1.33v14.36c0,.73-.27,1.37-.82,1.92s-1.19.82-1.91.82h-1.87c-.73,0-1.36-.27-1.91-.82s-.82-1.19-.82-1.92v-22.35c0-.73-.1-1.36-.27-1.88Zm8.38-24.16c-.52.52-.78,1.15-.78,1.88v2.59c0,.94.26,1.41.78,1.41.26,0,.6-.21,1.01-.63l.39-.39c.57-.52,1.25-.79,2.03-.79s1.43.26,1.95.79l.23.31c.41.47.8.71,1.17.71.52,0,.78-.5.78-1.49v-2.51c0-.73-.27-1.36-.82-1.88s-1.18-.79-1.91-.79h-2.96c-.73,0-1.35.26-1.87.79Zm0,15.26c.52.55,1.14.82,1.87.82h2.96c.73,0,1.36-.27,1.91-.82s.82-1.16.82-1.84v-3.13c0-.94-.26-1.41-.78-1.41-.37,0-.76.21-1.17.63l-.23.31c-.63.52-1.28.79-1.95.79s-1.36-.26-2.03-.79l-.39-.39c-.36-.36-.7-.55-1.01-.55-.52,0-.78.47-.78,1.41v3.13c0,.68.26,1.3.78,1.84Zm6.78,14.39c.52,0,.78-.47.78-1.41v-2.2c0-.73-.27-1.36-.82-1.88s-1.18-.79-1.91-.79h-2.96c-.73,0-1.35.26-1.87.79s-.78,1.15-.78,1.88v2.27c0,.89.26,1.33.78,1.33.31.05.65-.13,1.01-.55l.39-.39c.57-.57,1.25-.87,2.03-.87s1.43.29,1.95.87l.23.31c.52.41.91.63,1.17.63Zm10.99,21.49c-.67,0-1.21-.24-1.6-.71-.38-.47-.58-1.15-.58-2.04v-1.81c0-.79.12-1.44.36-1.96.23-.52.56-.79.98-.79.36,0,.67-.26.93-.79s.39-1.17.39-1.96v-35.61c0-1.83.23-2.74.7-2.74h19.57c.26,0,.48.26.67.79.18.52.27,1.17.27,1.96v35.61c0,.79.12,1.44.36,1.96s.56.79.98.79c.36,0,.66.26.89.79s.35,1.17.35,1.96v1.81c0,.79-.19,1.44-.58,1.96s-.9.79-1.52.79c-.52,0-1.15-.19-1.9-.55-.76-.36-1.42-.84-1.99-1.41l-1.87-2.04c-.52-.47-.96-1.16-1.33-2.07-.36-.92-.55-1.74-.55-2.47v-29.81c0-.79-.27-1.44-.82-1.96s-1.18-.79-1.91-.79h-1.33c-.78,0-1.44.26-1.99.79s-.82,1.17-.82,1.96v29.81c0,.78-.17,1.61-.51,2.51-.34.89-.79,1.57-1.36,2.04l-1.95,2.04c-1.25,1.3-2.52,1.96-3.83,1.96Zm18.32-62.67c-.88.42-1.71.63-2.49.63h-14.74c-.77,0-1.43-.3-1.98-.9s-.82-1.27-.82-2v-1.8c0-.79.28-1.41.82-1.88s1.21-.71,1.98-.71h13.18c.77,0,1.42-.15,1.94-.47.52-.32.79-.63.79-.94,0-.41.25-.73.77-.94s1.19-.31,2.03-.31h1.79c.73,0,1.36.19,1.88.59.51.39.77.85.77,1.37,0,.57-.18,1.23-.55,1.96-.36.73-.81,1.41-1.32,2.04l-1.88,1.88c-.57.58-1.29,1.07-2.18,1.49Zm5.15,9.96c-.52.52-1.15.79-1.88.79h-20.51c-.77,0-1.43-.26-1.98-.79-.55-.52-.82-1.15-.82-1.88v-1.81c0-.79.28-1.45.82-2s1.21-.82,1.98-.82h20.51c.73,0,1.36.27,1.88.82.51.55.77,1.21.77,2v1.81c0,.73-.26,1.36-.77,1.88Z"/><path class="cls-1" d="m188,8c4.42,0,8,3.58,8,8v152c0,4.42-3.58,8-8,8H16c-4.42,0-8-3.58-8-8V16c0-4.42,3.58-8,8-8h172m0-8H16C7.18,0,0,7.18,0,16v152c0,8.82,7.18,16,16,16h172c8.82,0,16-7.18,16-16V16c0-8.82-7.18-16-16-16h0Z"/></g></svg>