<svg xmlns="http://www.w3.org/2000/svg" data-name="Capa 2" viewBox="0 0 1031.79 232.69"><g data-name="Capa 1"><g stroke-width="0" data-name="&amp;lt;Repetición de espejo&amp;gt;"><path fill="#fff" d="M626.56 228.47h-51.75c3.13-74.82 6.24-149.1 9.38-224.13h51.32c17.45 46.11 35 92.49 53.6 141.67C707.69 96.93 725.26 50.5 742.86 4h51.13c3.14 74.46 6.28 148.78 9.46 224.04h-50.62V111.5c-1.47-.21-2.94-.41-4.4-.62-12.19 29.59-24.39 59.18-36.59 88.8h-45.42l-36.2-88.06h-3.64v116.84zM0 4.12c34.23 0 67.52-1.31 100.66.37 32.36 1.64 57.13 17.13 58.81 41.68 3.19 46.51 2.81 93.5.06 140.07-1.28 21.73-20.68 33.49-41.35 38.58-11.05 2.72-22.72 3.71-34.13 3.94-27.67.54-55.37.18-84.05.18V4.12zm50.41 178.6c14.48 0 27.28.78 39.95-.21 13.56-1.06 20.42-8.24 20.63-21.47.47-29.82.28-59.66.09-89.49-.08-12.6-7.18-20.86-19.34-21.32-25.64-.96-51.33-.29-80.6-.29 15.15 6.63 27.02 11.83 39.27 17.2v115.58zM895 3.92h68.08c22.78 74.35 45.58 148.73 68.71 224.22h-52.9l-12.37-42.51H852.61c13.65 6.18 23.84 10.78 34.69 15.7-2.61 9.26-5 17.75-7.56 26.84h-53.03C849.53 153.24 872.17 78.88 895 3.93zm59.13 137.65c-8.26-30.25-16.15-59.16-24.05-88.07l-2.14.12c-7.99 29.01-15.97 58.01-24.21 87.95h50.41zM530.77 7.19c-2.13 15.43-4.08 29.61-6.04 43.83-21.76-1.43-42.49-3.43-63.27-4.01-25.66-.72-34.06 7.8-34.25 33.14-.18 23.88-.21 47.76.02 71.64.25 25.85 9.31 34.63 35.02 34.22 8.03-.13 16.05-.9 25.79-1.47v-68.48h47.29v106.06c-39.71 8.75-80.07 17.74-120.76 1.88-23.03-8.98-36.73-27.23-37.61-51.88-1.33-37.04-1.43-74.2-.07-111.23 1.06-28.82 19.73-49.56 49.02-56.63 34.76-8.39 69.3-2.67 104.87 2.94zM269.31 107.25C284 71.07 297.58 37.65 311.24 4.02h52.74c-1.5 4.02-2.6 7.49-4.05 10.81-18.53 42.55-36.72 85.25-55.88 127.51-6.5 14.34-10.06 28.53-9.12 44.27.81 13.5.17 27.08.17 41.48h-51.3c0-14.39-.59-29.11.17-43.77.73-14.02-2.54-26.62-8.24-39.34C215.06 98.8 195.05 52.33 174.2 4.61h53.38c13.19 32.44 26.92 66.2 41.74 102.65z"/><path fill="none" d="M0 0h1031.79v232.69H0z"/></g></g></svg>