<svg xmlns="http://www.w3.org/2000/svg" width="154" height="150" fill="none"><path fill="#fff" d="M65.064 52.051A18.59 18.59 0 0 0 57.5 50.77a89.76 89.76 0 0 0-6.987.128v21.539l2.5.128h3.397c2.5 0 5-.384 7.372-1.154 2.051-.577 3.846-1.795 5.257-3.397 1.346-1.603 1.987-3.782 1.987-6.603a9.294 9.294 0 0 0-5.962-9.359zM126.603 0h-99.36A27.244 27.244 0 0 0 0 27.244v95.512C0 137.821 12.18 150 27.244 150h99.359c15.064 0 27.243-12.179 27.243-27.244V27.244C153.846 12.18 141.667 0 126.603 0zm-45.45 74.68C78.59 78.27 75 80.96 70.834 82.5c-4.359 1.603-9.166 2.18-14.423 2.18l-3.205-.065-2.756-.064v20.577a.768.768 0 0 1-.705.898H37.308c-.513 0-.77-.257-.77-.834V39.231c0-.449.193-.705.642-.705l3.59-.065 4.871-.128 5.577-.128 5.833-.064c5.257 0 9.616.641 13.205 1.987a22.89 22.89 0 0 1 8.59 5.257 20.41 20.41 0 0 1 4.68 7.307C84.487 55.385 85 58.141 85 61.026c0 5.512-1.282 10.064-3.846 13.654zm43.719-20.193v12.5c0 .513-.321.705-1.026.705a27.889 27.889 0 0 0-12.308 2.372c-1.217.577-2.371 1.346-3.269 2.372v32.692c0 .641-.256.898-.833.898H94.808a.9.9 0 0 1-1.026-.77V69.487l-.064-4.807-.128-5c0-1.475-.129-2.885-.257-4.36a.641.641 0 0 1 .45-.705h11.409a1.31 1.31 0 0 1 1.282 1.026c.583 1.91.864 3.9.834 5.898 1.923-2.244 4.295-4.103 6.923-5.513a19.869 19.869 0 0 1 9.743-2.5c.449-.065.834.256.898.705v.256z"/></svg>