<svg xmlns="http://www.w3.org/2000/svg" width="155" height="150" fill="none"><path fill="#fff" d="M63.99 52.053c-2.373-.961-4.937-1.346-7.565-1.282-1.667 0-3.141 0-4.36.065-1.281-.065-2.179 0-2.627.064v21.539c.897.064 1.73.128 2.5.128h3.397c2.5 0 5-.384 7.372-1.154 2.052-.577 3.847-1.795 5.257-3.397 1.346-1.603 1.987-3.782 1.987-6.603a10.551 10.551 0 0 0-1.474-5.705 9.296 9.296 0 0 0-4.488-3.654zM127.453 0H28.091C13.026 0 .846 12.18.846 27.245v95.51C.846 137.82 13.026 150 28.09 150h99.364c15.064 0 27.244-12.18 27.244-27.245v-95.51C154.698 12.18 142.518 0 127.454 0zm-47.38 74.683c-2.558 3.59-6.148 6.282-10.315 7.82-4.36 1.603-9.167 2.18-14.424 2.18-1.538 0-2.564 0-3.205-.064s-1.539-.064-2.757-.064v20.571c.065.449-.256.84-.705.904H36.232c-.513 0-.77-.263-.77-.84V39.232c0-.448.193-.705.642-.705 1.09 0 2.115 0 3.59-.064 1.538-.064 3.14-.064 4.871-.128 1.731-.064 3.59-.064 5.578-.128 1.987-.064 3.91-.064 5.833-.064 5.257 0 9.616.64 13.206 1.987a22.893 22.893 0 0 1 8.59 5.257 20.411 20.411 0 0 1 4.68 7.308c.955 2.692 1.468 5.449 1.468 8.333.008 5.513-1.274 10.065-3.847 13.655zM125.53 99.62a16.196 16.196 0 0 1-7.18 5.711c-3.141 1.34-6.988 2.039-11.61 2.039-2.942 0-5.833-.25-8.712-.827a26.142 26.142 0 0 1-6.538-2.051c-.45-.25-.776-.699-.712-1.212V92.126c0-.186.07-.449.263-.577.186-.128.385-.064.577.064a27.26 27.26 0 0 0 7.949 3.141 29.77 29.77 0 0 0 7.564.962c2.436 0 4.167-.327 5.321-.904 1.026-.449 1.731-1.539 1.731-2.693 0-.904-.513-1.73-1.539-2.564-1.025-.827-3.134-1.788-6.276-3.02a39.597 39.597 0 0 1-9.103-4.608 16.667 16.667 0 0 1-4.878-5.45 13.846 13.846 0 0 1-1.468-6.544c0-2.757.77-5.385 2.186-7.757 1.603-2.565 3.968-4.616 6.725-5.898 3.006-1.532 6.788-2.237 11.34-2.237 2.628 0 5.321.192 7.949.577a22.56 22.56 0 0 1 5.513 1.474c.25.064.513.32.641.577.064.257.128.513.128.77v10.449c0 .256-.128.512-.32.64-.577.129-.898.129-1.154 0-1.923-1.025-3.975-1.73-6.154-2.179-2.372-.513-4.744-.833-7.18-.833-1.282-.065-2.628.128-3.853.448-.827.193-1.538.641-1.987 1.282a3.393 3.393 0 0 0-.513 1.731c0 .577.257 1.154.648 1.667.577.705 1.339 1.282 2.179 1.73a58.552 58.552 0 0 0 4.545 2.116c3.468 1.154 6.802 2.757 9.879 4.68 2.115 1.34 3.846 3.141 5.058 5.32a13.805 13.805 0 0 1 1.474 6.597c.071 3.02-.827 6.026-2.493 8.533z"/></svg>