<svg xmlns="http://www.w3.org/2000/svg" data-name="Capa 2" viewBox="0 0 974.14 215.64"><path fill="#fff" d="M67.93 179.39c37.77-6.97 53.48-36.49 53.24-60.96-.25-25.57-17.23-53.36-52.15-59.74-.04-.3-.23-.74-.09-.87C79.01 47.7 88.78 37.24 99.32 27.61c8.75-7.99 21.44-6.55 30.52 2.5 20.48 20.41 40.93 40.86 61.39 61.29 3.88 3.88 7.81 7.7 11.64 11.64 9.08 9.35 9.34 22.5.24 31.67-24.6 24.76-49.3 49.42-74.09 73.98-8.72 8.64-21.62 9.37-30.21 1.35-10.43-9.73-20.28-20.09-30.87-30.65zm473.29-89.92c0 28.21-.09 56.42.09 84.63.03 4.19-1.19 5.44-5.33 5.22-6.47-.33-12.98-.24-19.47-.02-3.28.11-4.87-.64-4.81-4.28.07-4.13-.42-8.28-.7-12.42-.08-1.11.14-2.46-1.49-2.73-1.21-.2-1.8.64-2.28 1.54-10.45 19.42-28.49 22.11-47.64 20.26-24.61-2.38-40.03-17.84-44.98-44.8-3.21-17.47-2.84-35.12 3.83-51.98 9.16-23.15 30.09-34.7 56.19-31.47 13.71 1.7 25.36 6.72 32.22 19.59.66 1.24 1.37 2.5 2.99 1.87 1.63-.64 1.02-2.28 1.03-3.5.04-21.91.18-43.81-.09-65.71-.06-4.73 1.45-5.87 5.87-5.64 6.64.35 13.32.32 19.96 0 3.87-.18 4.69 1.2 4.67 4.81-.14 28.21-.08 56.42-.08 84.63zM510.9 117.5c0-6.96-.18-13.93.08-20.88.12-3.37-1.13-5.59-3.64-7.61-12.13-9.71-26.07-11.83-40.92-9.57-10.81 1.65-17.64 8.23-20.26 18.71-3.44 13.74-3.57 27.56.71 41.2 2.25 7.18 6.78 12.89 14.09 15.04 16.96 4.98 32.85 2.78 46.91-8.63 2.23-1.81 3.18-3.93 3.1-6.87-.19-7.12-.06-14.25-.06-21.38zm-160.07 7.95H307.9c-5.99 0-6.02.02-5.12 6.15.31 2.13.78 4.24 1.22 6.34 2.12 10.15 8.13 16.5 18.47 18.39 9.58 1.75 19.2 1.83 28.78-.01 8.74-1.68 14.81-6.62 17.23-15.32.83-3 2.09-3.45 4.95-2.64 7.03 2 14.13 3.76 21.25 5.38 3.01.68 3.68 1.73 2.56 4.74-5.75 15.49-16.85 25.24-32.44 29.86-18.47 5.47-37.15 5.39-55.63.05-17.18-4.97-28.94-15.98-34.24-33.17-5.51-17.88-5.51-36-.49-53.97 5.05-18.07 16.96-29.83 35-34.88 17.33-4.85 34.88-4.85 52.21.16 21.11 6.1 32.35 21.02 36.31 41.95 1.39 7.34 1.85 14.78 1.69 22.29-.08 3.6-1.1 4.83-4.88 4.77-14.64-.22-29.28-.09-43.92-.09zm-15.21-21.66h28.43c.17 0 .34.02.5 0 1.45-.23 3.35.67 3.32-2.25-.12-11.9-7.56-21.01-19.34-23.11-7.07-1.26-14.23-1.12-21.38-.62-14.28.99-21.83 7.97-23.98 21.97-.47 3.08.29 4.13 3.52 4.07 9.64-.17 19.28-.06 28.93-.06zm638.52 12.35c-.18 12.16-1.32 22.64-5.37 32.68-6.15 15.25-17.36 24.97-32.93 29.5-18.63 5.43-37.49 5.51-56.16.1-17.78-5.16-29.59-16.69-34.89-34.48-4.79-16.1-4.9-32.42-1.17-48.7 4.69-20.45 17.35-33.76 37.68-39.02 19.05-4.93 38.31-4.92 57.09 1.44 22.58 7.65 32.39 25.11 35.07 47.54.49 4.11.52 8.28.68 10.93zm-31.64 1.44c0-4.15.32-8.32-.06-12.43-1.41-15.16-7.25-22.94-19.93-25.7-10-2.17-20.17-1.96-30.23.05-10.12 2.02-15.98 8.44-18.05 18.29-2.86 13.65-2.98 27.37.38 40.94 2.33 9.38 8.41 15.13 18.1 17.02 8.43 1.65 16.91 1.69 25.35.73 14.28-1.62 20.52-7.63 23.56-21.58 1.25-5.74 1.13-11.54.87-17.34zm-250.62.13c0 18.58-.2 37.16.13 55.74.09 4.99-1.47 6.19-6.15 5.89-6.3-.4-12.65-.37-18.96 0-4.11.23-5.15-1.34-5.03-5.09.13-3.97-.28-7.95-.51-11.93-.05-.96-.05-2.08-1.28-2.41-.9-.24-1.63.17-2.08.96-13.38 23.65-35.22 23.19-57.68 19.5-14.68-2.41-24.31-11.53-28.86-25.79-2.14-6.7-3.07-13.61-3.1-20.59-.11-24.55 0-49.11-.13-73.66-.02-3.44.96-4.63 4.48-4.51 7.31.24 14.65.26 21.96 0 3.64-.13 4.4 1.22 4.37 4.56-.13 21.73-.06 43.47-.07 65.2 0 4.49.24 8.94 1.23 13.35 2.2 9.81 8.05 15.76 18.2 17.17 14.47 2 27.79-.46 39.35-9.98 2.5-2.06 3.54-4.39 3.53-7.7-.12-25.88.02-51.76-.16-77.64-.03-3.99 1.19-5.12 5.07-4.95 6.81.29 13.65.32 20.46 0 4.08-.19 5.38.92 5.32 5.16-.24 18.91-.1 37.82-.1 56.74zm146.9-61.81c-4.09 10.57-7.94 20.58-11.84 30.58-11.44 29.34-22.99 58.64-34.25 88.05-1.46 3.8-3.3 4.93-7.22 4.81-9.64-.29-19.3-.23-28.94-.02-3.29.07-4.96-.81-6.2-4.05-14.74-38.55-29.62-77.05-44.59-115.51-1.28-3.3-.52-3.97 2.73-3.91 8.48.14 16.97.09 25.45.02 2.19-.02 3.63.35 4.45 2.81 9.85 29.36 22.63 57.74 29.58 88.07.7 3.07 1.17 6.19 1.79 9.27.26 1.27.38 2.8 2.19 2.83 1.88.03 1.91-1.57 2.14-2.82 6.38-33.46 21.13-64.15 31.89-96.16 1.01-3 2.48-4.12 5.7-4.05 8.79.21 17.59.07 27.1.07zM66.45 178.96c-22.38 1.47-40.39-6.15-53.97-23.47-15.02-19.15-16.54-46.12-4.24-66.94 12.19-20.64 35.57-32.47 57.98-29.33-34.3 39.57-34.38 79.15.24 119.74z" data-name="Capa 1"/></svg>