<svg xmlns="http://www.w3.org/2000/svg" width="145" height="150" fill="none"><path fill="#fff" d="M25.358 26.3c4.669 3.789 6.411 3.5 15.173 2.917l82.593-4.956c1.759 0 .296-1.759-.288-2.046l-13.717-9.913c-2.63-2.038-6.132-4.38-12.839-3.797l-79.979 5.836c-2.91.287-3.493 1.75-2.334 2.917L25.358 26.3zm4.956 19.249v86.894c0 4.677 2.335 6.419 7.595 6.131l90.763-5.252c5.252-.287 5.835-3.501 5.835-7.298v-86.31c0-3.79-1.455-5.836-4.668-5.54l-94.856 5.54c-3.501.287-4.669 2.038-4.669 5.835zm89.612 4.66c.576 2.622 0 5.252-2.638 5.548l-4.372.872v64.151c-3.797 2.046-7.299 3.205-10.217 3.205-4.668 0-5.835-1.454-9.336-5.827l-28.61-44.91v43.455l9.056 2.038s0 5.244-7.306 5.244l-20.137 1.168c-.583-1.168 0-4.077 2.047-4.661l5.252-1.455V61.585L46.366 61c-.583-2.63.88-6.419 4.964-6.715l21.6-1.455 29.769 45.502v-40.25l-7.594-.87c-.575-3.214 1.759-5.54 4.677-5.837l20.144-1.167zM9.586 6.467 92.771.343c10.208-.88 12.838-.288 19.265 4.373l26.548 18.666c4.381 3.205 5.844 4.077 5.844 7.578v102.362c0 6.42-2.334 10.209-10.504 10.792l-96.607 5.836c-6.131.288-9.05-.584-12.263-4.669L5.501 119.909C2 115.24.545 111.747.545 107.654V16.667c0-5.244 2.326-9.617 9.041-10.2z"/></svg>