<svg xmlns="http://www.w3.org/2000/svg" width="409" height="78" fill="none"><path fill="#fff" d="M37.049 77.2c-1.5-8.6-7.6-19.4-19.2-28.1-5.7-4.3-11.5-7.1-17.2-8.3v-4.2c11.3-2.7 22.4-10.3 29.5-20.6 3.6-5.2 5.9-10.3 6.9-15.6h4.2c1.7 10.1 9.5 21.3 20.1 28.8 5.2 3.7 10.6 6.2 16.1 7.4v4.2c-11.1 2.3-24 12.2-30.4 22.3-3.2 5.1-5.1 9.8-5.8 14.1h-4.2zm99.756-4.2h-37.6V6h35.6c15.3 0 22.8 5.1 22.8 16.5 0 8.4-4.5 13.5-13.7 14.3v1.3c11.3.4 16.8 7.3 16.8 16.3 0 11.7-7.5 18.6-23.9 18.6zm-18.8-50.1v8.6h15.8c3.9 0 5-.9 5-4.3 0-3.6-1.5-4.3-5.4-4.3h-15.4zm0 23.2v10h18.1c3.6 0 5.5-.5 5.5-4.9 0-4.5-1.7-5.1-5.5-5.1h-18.1zM202.303 73h-18.8V50.4L157.303 6h22.3l8.4 15.8 4.5 10h1.3l4.4-10 8.4-15.8h21.9l-26.2 44.2V73zm66.419 0h-18.8V22.9h-20.6V6h60v16.9h-20.6V73zm78.04 0h-54.1V6h54.1v16.9h-35.3V31h33.8v16.8h-33.8v8.3h35.3V73zm33.582 1c-19.2 0-28.8-9-28.8-23v-1.3h18.5v.8c0 5.5 2 6.6 11 6.6 7.1 0 8.6-1.1 8.6-4 0-3.1-1-4.1-5.6-4.8l-14.6-2.3c-13.6-2.1-19.2-9.3-19.2-19.7 0-11.9 9.1-21.3 28.8-21.3 18.7 0 27.6 9.4 27.6 21.9v1.7h-18.5v-1.2c0-3.9-1.9-5.5-10.3-5.5-7.1 0-8.9 1.2-8.9 3.7 0 2.1 1.3 3 5.2 3.7l14.6 2.6c14.2 2.5 19.7 9.9 19.7 20.3 0 11.7-8 21.8-28.1 21.8z"/></svg>