<svg xmlns="http://www.w3.org/2000/svg" data-name="Capa 2" viewBox="0 0 1801.76 213.23"><path fill="#fff" d="M1016.83 81.99c18.09-19.52 35.83-38.65 53.57-57.78 6.56-7.07 13.07-14.18 19.68-21.2 1.09-1.15 2.59-2.7 3.92-2.72 10.78-.22 21.57-.12 32.66-.12v212.48h-36.84V57.06c-1.92 1.75-3.01 2.62-3.95 3.63-18.84 20.39-37.72 40.75-56.44 61.26-2.79 3.06-5.66 4.08-9.8 4.51-8.66.9-14.37-2.26-20.03-8.73-16.42-18.75-33.6-36.85-50.44-55.25-1.09-1.19-1.84-2.7-2.75-4.06-.54.31-1.07.63-1.61.94v153.32h-38.56c-.1-1.67-.28-3.41-.28-5.15-.01-67.26.04-134.53-.12-201.79-.01-4.73 1.45-5.89 5.92-5.72 8.32.33 16.66.24 24.98.02 3.33-.09 5.51 1.08 7.71 3.48 22.63 24.81 45.37 49.53 68.09 74.26 1.21 1.32 2.56 2.53 4.28 4.21zm313.69 130.76V.99h5.56c40.47 0 80.97-.89 121.41.27 34.74 1 60.56 24.99 61.95 61.07 1.16 30.02.39 60.11.2 90.17-.22 34.9-24.87 60.09-59.7 60.41-41.97.39-83.95.1-125.92.09-.98 0-1.95-.14-3.51-.25zm37.06-38.63c1.27.18 2.07.4 2.87.4 29.13.02 58.26.19 87.39-.07 13.95-.12 23.04-8.99 23.25-23.39.44-29.37.44-58.76.01-88.13-.22-15.06-9.65-23.43-24.69-23.44-27.8-.03-55.6-.01-83.4 0-1.76 0-3.51.18-5.44.28v134.34zM280.94 68.74v143.8h-37.87V1.04c8.94 0 17.81.78 26.47-.2 10.12-1.14 15.56 2.74 20.9 11.26 26.85 42.78 54.5 85.07 81.87 127.52.87 1.35 1.84 2.64 3.95 3.84v-5.58c0-43.67.06-87.35-.09-131.02-.01-4.39.9-6.11 5.72-5.94 10.77.38 21.56.12 32.66.12v211.92c-3.46 0-6.88-.02-10.3 0-7.83.04-15.66-.1-23.47.25-3.81.17-5.95-1.12-8-4.32-29.07-45.32-58.28-90.54-87.46-135.79-1.04-1.62-2.11-3.22-3.17-4.83-.41.15-.81.31-1.22.46zM432.9 1.04h5.68c51.96 0 103.92.09 155.87-.14 5.31-.02 6.37 1.62 6.21 6.46-.35 10.42-.11 20.85-.11 32.07h-6.24c-39.14 0-78.27.09-117.4-.11-4.86-.02-6.18 1.36-6.05 6.11.33 12.28.29 24.58.01 36.86-.1 4.32 1.04 5.66 5.53 5.63 32.14-.19 64.28-.1 96.42-.1h5.89v38.3H471.37v48.31h128.82v38.17h-167.3V1.04zm712.02.21h167.28v37.97h-128.56v48.47h107.28v38.45h-107.31v48.28h128.67v38.25h-167.36V1.25zM169.66 60.62c-11.45 0-21.57-.24-31.67.1-5.32.18-8.25-.87-10.74-6.47-4.12-9.28-11.78-14.99-22.82-14.85-14.49.18-29-.32-43.47.26-16.82.68-27.86 17.7-21.47 32.65 3.88 9.06 10.73 14.97 20.98 15.22 15.31.38 30.64.24 45.96.29 24.64.08 48.1 15.06 57.11 37.55 9.98 24.89 6.67 48.28-11.96 67.97-12.25 12.94-28.65 18.65-46.33 19.49-13.63.65-27.31.13-40.97.13-29.68 0-51.21-15.64-60.21-43.9-1.54-4.84-2.53-9.86-4.09-16.05h15.81c6.5 0 13 .12 19.49-.06 2.91-.08 4.84.69 5.54 3.65.04.16.12.31.17.47 4.45 13.56 6.83 17.67 26.33 17.56 11.83-.06 23.65.08 35.48-.07 3.63-.05 7.41-.26 10.85-1.29 12.32-3.69 18.18-13.69 16.34-27.11-1.64-11.97-10.46-19.65-23.6-19.89-14.65-.26-29.35-.71-43.97.06-32.59 1.7-58.82-28.31-61.4-55.02C-2.17 37.95 18.03 8.97 49.71 2.35c1.95-.41 3.95-.86 5.92-.86 19.13.05 38.34-.85 57.36.64C127.6 3.27 141 9.66 151.43 20.51c3.74 3.89 7.22 8.48 9.3 13.39 3.51 8.33 5.82 17.16 8.93 26.72zm644.17 152.34c-14.36 0-27.84.14-41.32-.16-1.79-.04-4.09-1.94-5.2-3.61-15.63-23.53-31.1-47.17-46.62-70.79-1.09-1.66-2.21-3.29-3.8-5.65-1.3 1.8-2.35 3.15-3.29 4.57-15.59 23.76-31.21 47.5-46.67 71.35-2.02 3.12-4.11 4.49-7.99 4.41-13.14-.27-26.29-.1-40.16-.1.77-1.59 1.19-2.76 1.85-3.77 20.38-30.76 40.75-61.52 61.3-92.17 1.14-1.7 3.83-3.32 5.82-3.34 19.15-.25 38.3-.24 57.45-.03 2.06.02 4.97 1.26 6.04 2.89 20.5 31.07 40.79 62.29 61.1 93.48.43.65.71 1.4 1.46 2.93zM631.76 1.04c11.39 0 22.36.54 33.24-.18 7.75-.51 12.27 2.01 16.37 8.62 10.16 16.37 21.2 32.19 31.89 48.23.99 1.49 2.02 2.95 3.44 5.01 1.37-1.94 2.43-3.33 3.38-4.8 11.49-17.7 23.03-35.37 34.39-53.15 1.71-2.68 3.5-3.86 6.78-3.81 13.44.19 26.88.08 41.05.08-.91 1.78-1.37 2.95-2.05 3.98-17.84 27.05-35.66 54.11-53.69 81.04-1.12 1.68-3.87 3.19-5.88 3.22-15.98.21-31.97.1-47.95-.12-1.71-.02-4.14-.85-4.99-2.13-18.6-27.94-37.02-56-55.47-84.04-.17-.26-.17-.63-.51-1.95zm1003.86 112.35c.76-2.15 1.18-3.55 1.75-4.89 14.52-34.4 29.11-68.76 43.53-103.21 1.37-3.27 3.02-4.54 6.6-4.38 6.48.3 12.99-.12 19.46.22 1.7.09 4.2 1.46 4.83 2.9 15.61 35.56 31.01 71.2 46.43 106.84.25.58.3 1.24.55 2.36-10.05 0-19.79.13-29.53-.03-12.8-.21-9.15 2.25-14.18-9.27-6.03-13.81-11.81-27.74-18.17-42.75-1.21 2.64-2.03 4.3-2.73 6-5.85 14.1-11.77 28.17-17.44 42.34-1.18 2.94-2.69 3.98-5.85 3.93-11.46-.18-22.93-.07-35.23-.07zm-60.14-37.02v136.39h-38.01c-.11-1.83-.3-3.43-.3-5.04-.02-29.04-.05-58.07.07-87.11 0-2.13.53-4.84 1.87-6.3 11.35-12.35 22.94-24.47 34.48-36.66.33-.34.8-.55 1.89-1.28zM224.58 212.65h-37.84c-.1-1.83-.26-3.45-.26-5.07-.02-26.89-.09-53.77.12-80.66.02-2.48 1.23-5.55 2.95-7.32 10.65-10.96 21.61-21.63 32.48-32.38.65-.64 1.4-1.18 2.55-2.14v127.57zm1577.04.36h-30.69q-9.71 0-13.48-8.87c-8.42-19.86-16.82-39.73-25.22-59.6-.63-1.48-1.13-3.02-1.99-5.32 13.09 0 25.52-.06 37.95.1 1.12.01 2.8 1.19 3.26 2.25 10.18 23.26 20.22 46.58 30.27 69.89.11.26-.03.63-.1 1.55zm-208.29 0c1.24-3.06 2.07-5.19 2.96-7.3 8.7-20.62 17.5-41.21 26.04-61.9 1.48-3.59 3.23-5.04 7.28-4.93 11.27.31 22.55.11 34.46.11-.74 2.17-1.13 3.57-1.68 4.9-8.93 21.61-17.95 43.18-26.74 64.84-1.33 3.29-3.02 4.44-6.57 4.37-11.62-.23-23.24-.09-35.74-.09zM186.84 1.29h38.1v19.54c0 7.8.06 15.6-.05 23.4-.02 1.56-.21 3.56-1.16 4.6-11.97 13.1-24.09 26.05-36.89 39.83V1.29zm1350.72 0h37.77c.15 2.2.4 4.26.4 6.33.04 9.8.13 19.59-.08 29.38-.04 1.97-.74 4.38-2.02 5.79-11.25 12.46-22.69 24.74-34.09 37.06-.4.44-.99.71-1.98 1.4V1.29z" data-name="Capa 1"/></svg>