<svg xmlns="http://www.w3.org/2000/svg" id="Capa_2" data-name="Capa 2" viewBox="0 0 428.14 424.97"><defs><style>.cls-1{fill:#fff;stroke-width:0}</style></defs><g id="Capa_1-2" data-name="Capa 1"><path d="M5.27 245.98c.12-14.28.76-26.97 5.36-39.09 4.46-11.73 9-23.47 15.39-34.26 3.74-6.32 7.9-12.47 11.9-18.66 9.45-14.61 22.21-26.06 34.43-38 6.58-6.43 14.07-12 21.69-17.28.64-.44 1.3-1.02 2.05-.38.82.71.59 1.69.08 2.4-1.27 1.78-2.58 3.55-4.04 5.18-16.22 18.08-28.27 38.61-34.93 61.97-4.58 16.05-7.17 32.53-6.41 49.36.42 9.1 1.52 18.11 3.13 27.07.21 1.16.12 2.63 1.52 3.04 1.4.41 2.13-.91 2.94-1.73 15.69-15.67 31.4-31.32 47.04-47.04 11.25-11.31 24.81-18.55 40.28-21.64 20.69-4.14 40.81-2.15 59.79 7.89 7.96 4.21 14.59 10.15 21.14 16.08 14.31 12.97 36.87 12.89 50.47-.7 26.57-26.53 53.1-53.09 79.64-79.65 3.47-3.47 3.45-3.95.05-7.4-4.39-4.45-8.78-8.91-13.16-13.37-1.1-1.12-2.23-2.28-1.55-4.02.66-1.69 2.31-1.36 3.68-1.56 9.99-1.41 19.97-2.84 29.96-4.25 15.94-2.26 31.88-4.52 47.82-6.75 3.88-.54 5.02.61 4.45 4.62-1.18 8.25-2.58 16.47-3.72 24.72-1.23 8.9-2.2 17.83-3.42 26.73-1.29 9.34-2.68 18.66-4.16 27.97-.41 2.57-1.79 3-4 1.45-2.07-1.45-3.99-3.09-5.55-5.11-3.04-3.94-7.08-6.86-10.6-10.31-1.33-1.3-2.75-1.18-4.08.07-.72.67-1.42 1.37-2.12 2.07-23.68 23.67-47.31 47.4-71.06 70.99-8.26 8.2-16.91 16.03-27.35 21.44-10.8 5.6-22.08 9.53-34.47 9.94-13.43.45-26.48-.82-39.04-5.98-11.04-4.54-20.13-11.81-28.91-19.68-11.47-10.28-27.61-13.53-42.09-5.52-6.76 3.74-12.06 8.98-17.38 14.38-9.77 9.92-19.78 19.61-29.58 29.5-4.86 4.9-9.82 9.7-14.61 14.68-9.95 10.34-20.4 20.19-30.58 30.31-4.27 4.24-8.26 8.78-12.6 12.95-4.37 4.2-5.83 3.93-9.17-1.09-11.84-17.79-20.37-37.09-25.82-57.72-2.17-8.2-2.32-16.68-2.41-23.61zm204.6 178.93c-10.3.43-21.96-1.56-33.68-3.44-22.1-3.55-43-10.52-62.8-20.86-15.52-8.11-29.92-17.84-42.66-29.93-3.02-2.86-3.17-4.4-.19-7.44 7.81-7.99 15.75-15.86 23.64-23.77 1.93-1.94 3.83-3.9 5.8-5.8 2.24-2.17 4.48-1.85 6.7.12 12.75 11.29 26.99 20.29 42.69 26.82 16.69 6.95 34.03 11.3 52.2 12.43 25.61 1.59 50.43-2.15 74.97-9.32 17.1-5 33.05-12.48 48.43-21.13 11.83-6.65 22.63-14.92 33.15-23.62 17.91-14.8 31.97-32.75 44.28-52.13 6.58-10.35 11.89-21.49 16.42-32.95.62-1.56 1.07-3.97 3.27-3.42 2.2.55 1.5 2.91 1.24 4.54-1.76 11.13-3.38 22.29-6.41 33.19-5.01 18.07-12.17 35.24-21.6 51.45-10.49 18.03-23.31 34.32-38.65 48.41-10.82 9.93-22.61 18.76-35.29 26.31-20.34 12.11-41.97 20.91-65.24 25.56-14.75 2.95-29.58 5.19-46.29 5z" class="cls-1"/><path d="M210.58 51.38c-27.84.69-54.86 5.41-80.77 16.09-12.2 5.03-23.86 10.97-35.31 17.5-5.29 2.71-24.45 18.28-25.75 19.42l-9.06 7.91s-10.63 9.79-15.77 14.86c-5.65 5.57-10.17 12.05-14.77 18.52-4.2 5.89-5.91 9.95-11.13 18.35s-10.01 15.01-11.97 22.5-.66 2.64-2.05 7.17c-.62 1.05-.93 2.48-2.39 2.29-1.79-.23-1.65-1.9-1.54-3.16.67-7.66 1.97-15.22 3.58-22.73 2.4-11.17 5.48-22.14 9.57-32.81 4.67-12.21 10.26-23.92 17.12-35.12 8.65-14.11 18.98-26.85 30.22-38.83 5.19-5.53 11.25-10.36 17.15-15.27 6.78-5.63 13.9-10.66 21.28-15.37 21.99-14.01 45.82-23.33 71.44-28.25 15.33-2.93 30.74-4.87 46.38-4.37 14.5.46 28.79 2.48 42.97 5.59 21.97 4.81 42.38 13.4 61.66 24.82 6.57 3.9 12.6 8.33 15.38 16.01 3.42 9.45 1.86 18.19-4.41 25.64-6.45 7.66-15.22 9.92-25.03 8.07-4.05-.76-7.61-2.59-11.11-4.76-7.84-4.87-16.05-9.15-24.64-12.43-10.75-4.1-21.73-7.49-33.22-9.23-9.24-1.4-18.41-2.94-27.83-2.41z" class="cls-1"/></g></svg>