<svg xmlns="http://www.w3.org/2000/svg" width="155" height="150" fill="none"><path fill="#fff" d="M127.302 0h-99.36C12.88 0 .7 12.18.7 27.244v95.512C.7 137.821 12.88 150 27.943 150h99.359c15.064 0 27.243-12.179 27.243-27.244V27.244C154.545 12.18 142.366 0 127.302 0zM80.827 105.769H67.43c-.449.071-.897-.256-1.026-.705l-5.256-15.32H37.302l-4.872 15.128c-.128.577-.641.961-1.218.897H19.161c-.705 0-.898-.384-.705-1.154l20.64-59.23c.193-.641.385-1.346.642-2.116.32-1.346.513-2.692.513-4.102-.065-.32.192-.641.512-.706h16.603c.449 0 .77.193.833.513l23.27 65.776c.192.699 0 1.019-.642 1.019zm49.68.071h-11.032a1.222 1.222 0 0 1-1.212-.705c-.128-.513-.256-1.097-.391-1.603-.128-.449-.128-.897-.128-1.346-2.051 1.852-4.551 3.205-7.243 3.968a26.541 26.541 0 0 1-7.116.961c-2.365 0-4.744-.32-6.987-1.089a13.47 13.47 0 0 1-5.449-3.526 16.077 16.077 0 0 1-3.596-6.218 29.487 29.487 0 0 1-1.276-9.102V55.385a.705.705 0 0 1 .642-.834h12.429c.391-.064.776.193.84.641V85.52c0 2.814.641 5.058 1.852 6.66 1.225 1.603 3.718 2.443 6.609 2.443 1.468 0 2.943-.263 4.359-.776a15.304 15.304 0 0 0 4.039-2.115V55.256c0-.448.32-.705.897-.705h12.244c.327-.064.698.193.698.513v39.487c0 1.737 0 3.276.071 4.616.064 1.352.135 2.506.192 3.532a62.13 62.13 0 0 1 .25 2.301c.077.577-.179.84-.692.84zm-76.41-38.981c-.641-1.987-1.218-3.91-1.86-5.897a138.55 138.55 0 0 1-1.73-5.706c-.513-1.794-.962-3.461-1.41-5h-.129a78.734 78.734 0 0 1-2.179 8.27c-.962 3.077-1.923 6.282-2.949 9.487-.833 3.269-1.859 6.282-2.82 8.974h16.282a90.987 90.987 0 0 0-1.475-4.615 196.755 196.755 0 0 1-1.73-5.513z"/></svg>