<svg xmlns="http://www.w3.org/2000/svg" width="151" height="150" fill="none"><path fill="#fff" d="M59.646 78c0 .675 0 .675-.525.675H45.846c2.475-7.5 5.1-15.45 7.5-23.25 0 .6 0 1.2.525 1.8.525.6.675 2.475.975 3.675l1.35 4.2c0 1.425.825 2.775 1.275 4.2l1.425 4.275.75 4.425z"/><path fill="#fff" d="M113.946 73.275a7.506 7.506 0 0 0-5.7-5.025 12.728 12.728 0 0 0-4.125 0 6.97 6.97 0 0 0-4.8 3.525 12.526 12.526 0 0 0-1.5 4.35h15.525c.75 0 .975 0 .9-1.05a8.256 8.256 0 0 0-.3-1.8zm0 0a7.506 7.506 0 0 0-5.7-5.025 12.728 12.728 0 0 0-4.125 0 6.97 6.97 0 0 0-4.8 3.525 12.526 12.526 0 0 0-1.5 4.35h15.525c.75 0 .975 0 .9-1.05a8.256 8.256 0 0 0-.3-1.8zm0 0a7.506 7.506 0 0 0-5.7-5.025 12.728 12.728 0 0 0-4.125 0 6.97 6.97 0 0 0-4.8 3.525 12.526 12.526 0 0 0-1.5 4.35h15.525c.75 0 .975 0 .9-1.05a8.256 8.256 0 0 0-.3-1.8zm0 0a7.506 7.506 0 0 0-5.7-5.025 12.728 12.728 0 0 0-4.125 0 6.97 6.97 0 0 0-4.8 3.525 12.526 12.526 0 0 0-1.5 4.35h15.525c.75 0 .975 0 .9-1.05a8.256 8.256 0 0 0-.3-1.8zM113.346 0h-75a37.5 37.5 0 0 0-37.5 37.5v75a37.501 37.501 0 0 0 37.5 37.5h75a37.5 37.5 0 0 0 37.5-37.5v-75a37.499 37.499 0 0 0-37.5-37.5zM81.321 105H69.17a1.053 1.053 0 0 1-1.065-.51 1.03 1.03 0 0 1-.135-.39c-.6-1.875-1.275-3.675-1.875-5.55-.6-1.875-1.5-4.275-2.175-6.45 0-1.2-.975-1.35-2.025-1.35h-18.9c-.825 0-.825 0-1.125.9-.3.9-.75 2.475-1.2 3.75l-1.2 3.9-1.575 4.575a1.83 1.83 0 0 1 0 .6c0 .975-1.2.825-1.95.825H26.27c-1.125 0-1.5-.525-1.05-1.575.45-1.05.825-2.25 1.2-3.3l1.575-4.8 2.925-8.25c.825-2.25 1.575-4.575 2.325-6.9.75-2.325 1.425-3.975 2.175-6l1.575-4.725 2.775-7.5 2.25-6.6c.75-2.1 1.5-4.2 2.175-6.375a13.795 13.795 0 0 0 0-3.075c0-1.575 0-1.575 1.575-1.575h13.575c1.2 0 1.125 0 1.5 1.125s1.35 3.675 1.95 5.475c.6 1.8 1.125 3.15 1.65 4.65l1.8 4.875 1.8 5.25c.75 2.025 1.5 3.975 2.175 6l1.95 5.4c.6 1.8 1.275 3.6 1.95 5.475.675 1.875.9 2.775 1.425 4.125s1.05 3 1.65 4.5c.6 1.5.975 2.85 1.5 4.275l2.175 6.075.9 2.625c.3-.075.075.525-.45.525zm45-22.5c.037.675.037 1.35 0 2.025 0 .675-1.125.9-1.8.9H98.046c.27 2.46 1.35 4.755 3.075 6.525a22.497 22.497 0 0 0 21 1.35c.6 0 .9 0 .9.6v8.475c0 1.35-.525 1.5-1.65 1.95l-2.7.825a16.29 16.29 0 0 1-2.625.525c-1.875 0-3.75.525-5.625.6-1.875.075-2.55 0-3.825 0h-.75c-1.5 0-3.075 0-4.5-.525a20.174 20.174 0 0 1-10.8-6 19.8 19.8 0 0 1-4.2-6.6 20.776 20.776 0 0 1-1.5-5.625 64.576 64.576 0 0 1 0-6.6 28.183 28.183 0 0 1 1.5-7.95 23.851 23.851 0 0 1 3.075-6 18.975 18.975 0 0 1 6.75-6.15 23.45 23.45 0 0 1 3.675-1.725c1.384-.33 2.787-.58 4.2-.75a32.54 32.54 0 0 1 3.825 0 23.47 23.47 0 0 1 5.55.75 21.87 21.87 0 0 1 4.725 1.95 15.001 15.001 0 0 1 5.55 5.55c.75 1.35 1.35 2.7 1.95 4.05.322.953.57 1.935.75 2.925.67 2.93.747 5.965.225 8.925h-.3zm-18.375-13.875a12.728 12.728 0 0 0-4.125 0 6.968 6.968 0 0 0-4.8 3.525 12.526 12.526 0 0 0-1.5 4.35h15.825c.75 0 .975 0 .9-1.05a8.313 8.313 0 0 0-.45-1.95 7.497 7.497 0 0 0-5.55-5.25l-.3.375zm5.7 5.025a7.506 7.506 0 0 0-5.7-5.025 12.728 12.728 0 0 0-4.125 0 6.968 6.968 0 0 0-4.8 3.525 12.526 12.526 0 0 0-1.5 4.35h15.825c.75 0 .975 0 .9-1.05 0-.735-.105-1.47-.3-2.175l-.3.375zm0 0a7.506 7.506 0 0 0-5.7-5.025 12.728 12.728 0 0 0-4.125 0 6.968 6.968 0 0 0-4.8 3.525 12.526 12.526 0 0 0-1.5 4.35h15.825c.75 0 .975 0 .9-1.05 0-.735-.105-1.47-.3-2.175l-.3.375zm0 0a7.506 7.506 0 0 0-5.7-5.025 12.728 12.728 0 0 0-4.125 0 6.968 6.968 0 0 0-4.8 3.525 12.526 12.526 0 0 0-1.5 4.35h15.825c.75 0 .975 0 .9-1.05 0-.735-.105-1.47-.3-2.175l-.3.375zm0 0a7.506 7.506 0 0 0-5.7-5.025 12.728 12.728 0 0 0-4.125 0 6.968 6.968 0 0 0-4.8 3.525 12.526 12.526 0 0 0-1.5 4.35h15.825c.75 0 .975 0 .9-1.05 0-.735-.105-1.47-.3-2.175l-.3.375z"/></svg>