<svg xmlns="http://www.w3.org/2000/svg" width="97" height="150" fill="none"><path fill="#fff" fill-rule="evenodd" d="M21.386 54.054a20.94 20.94 0 0 0-8.014 40.29 20.94 20.94 0 0 0 8.014 1.594h20.942v-20.52a35.91 35.91 0 0 1 0-.844v-20.52H21.386zm20.942-12.162H21.386a20.946 20.946 0 1 1 0-41.892h20.942v41.892zM54.49 0v41.892h20.942a20.95 20.95 0 0 0 0-41.892H54.49zm20.942 54.046a20.942 20.942 0 0 0-20.942 20.61v.672a20.941 20.941 0 1 0 20.942-21.282zM21.386 108.1A20.947 20.947 0 0 0 .83 133.132a20.953 20.953 0 0 0 16.459 16.465 20.954 20.954 0 0 0 21.509-8.907 20.948 20.948 0 0 0 3.531-11.64V108.1H21.386z" clip-rule="evenodd"/></svg>